<svg xmlns="http://www.w3.org/2000/svg" width="17" height="17" fill="none">
  <g clip-path="url(#a)">
    <rect width="16" height="16" x=".966" y=".966" fill="#fff" rx="2.918"/>
    <g clip-path="url(#b)">
      <path fill="#D7D8D6" d="M16.966.966h-16v16h16v-16Z"/>
      <path fill="#53565A" d="M11.147 15.02a.876.876 0 1 0 0-1.752.876.876 0 0 0 0 1.752Zm-2.101 0a.876.876 0 1 0 0-1.752.876.876 0 0 0 0 1.752Zm-2.101 0a.875.875 0 1 0 0-1.751.875.875 0 0 0 0 1.75Zm5.27-4.441L5.757 8.476l.09-.265c.098-.292.383-.403.553-.47l.047-.018.088-.035.057-.023c.199-.081.402-.175.536-.308.318-.314.585-.87.82-1.36l.071-.147c.343-.714.67-1.335 1.2-1.704.45-.313 1-.373 1.634-.176l.007.002c.627.215 1.03.585 1.202 1.1.217.656.057 1.442-.071 2.074l-.032.157c-.108.532-.23 1.134-.166 1.573.027.182.128.369.223.527l.053.088.049.078.025.039c.097.155.26.413.161.706l-.089.265Zm-5.8-2.358 5.432 1.769a1.668 1.668 0 0 0-.083-.144l-.024-.038a5.648 5.648 0 0 1-.053-.085l-.054-.09c-.118-.196-.243-.432-.282-.692-.07-.478.03-1.041.17-1.727l.032-.157c.118-.58.264-1.301.084-1.844-.125-.38-.426-.647-.92-.817-.501-.155-.908-.117-1.243.117-.44.307-.737.875-1.052 1.53l-.071.148c-.304.632-.563 1.142-.909 1.483-.19.189-.44.306-.681.404l-.059.024-.094.038-.045.017a1.76 1.76 0 0 0-.148.064Z"/>
      <path fill="#53565A" fill-rule="evenodd" d="M11.3 10.776c-.23.491-.872.593-1.196.521-.311-.117-.8-.555-.738-1.097l.967.288.967.288Zm.198-6.752a.626.626 0 0 0-.424-.725h-.002l-.001-.001a.641.641 0 0 0-.78.333l-.272-.089.007-.022a.91.91 0 0 1 .46-.525.934.934 0 0 1 .704-.05h.003c.482.158.744.67.585 1.146l-.008.022-.272-.09v.001Z" clip-rule="evenodd"/>
    </g>
  </g>
  <defs>
    <clipPath id="a">
      <rect width="16" height="16" x=".966" y=".966" fill="#fff" rx="2.918"/>
    </clipPath>
    <clipPath id="b">
      <path fill="#fff" d="M.966.966h16v16h-16z"/>
    </clipPath>
  </defs>
</svg>
