<svg xmlns="http://www.w3.org/2000/svg" width="16" height="16" fill="none">
  <g clip-path="url(#a)">
    <rect width="16" height="16" fill="#fff" rx="2.918"/>
    <g clip-path="url(#b)">
      <path fill="#DEE6F1" d="M16 0H0v16h16V0Z"/>
      <path fill="#FC273F" d="M10.181 14.054a.876.876 0 1 0 0-1.751.876.876 0 0 0 0 1.75Zm-2.101 0a.876.876 0 1 0 0-1.751.876.876 0 0 0 0 1.75Zm-2.101 0a.876.876 0 1 0 0-1.751.876.876 0 0 0 0 1.75Z"/>
      <path fill="#031F30" d="M11.249 9.613 4.79 7.51l.09-.264c.098-.293.383-.404.553-.471l.047-.018.088-.034.057-.024c.199-.081.401-.175.536-.308.318-.314.585-.87.82-1.36l.071-.147c.343-.714.67-1.335 1.2-1.704.45-.313 1-.373 1.634-.176l.007.002c.627.215 1.03.585 1.201 1.1.218.656.058 1.442-.07 2.074l-.032.157c-.108.532-.23 1.134-.166 1.573.027.182.128.37.223.528l.053.087.049.078.025.039c.097.155.26.414.161.706l-.089.265Zm-5.8-2.358 5.432 1.769a1.695 1.695 0 0 0-.083-.144l-.024-.038a4.935 4.935 0 0 1-.053-.085l-.054-.09c-.118-.196-.243-.432-.282-.692-.07-.478.03-1.04.17-1.727l.032-.157c.118-.58.264-1.301.084-1.844-.125-.38-.426-.647-.92-.817-.501-.155-.908-.117-1.243.117-.44.307-.737.875-1.053 1.53l-.07.148c-.304.632-.563 1.142-.909 1.484-.19.188-.44.305-.681.404l-.059.024-.094.037-.045.017a1.76 1.76 0 0 0-.148.064Z"/>
      <path fill="#031F30" fill-rule="evenodd" d="M10.334 9.81c-.23.492-.872.593-1.196.521-.311-.117-.8-.555-.738-1.097l.967.288.967.288Zm.197-6.752a.626.626 0 0 0-.423-.725h-.002l-.001-.001a.641.641 0 0 0-.78.333l-.272-.088.007-.023a.91.91 0 0 1 .46-.524.934.934 0 0 1 .703-.051h.002l.002.001c.482.157.744.67.585 1.145l-.008.022-.272-.089Z" clip-rule="evenodd"/>
    </g>
  </g>
  <defs>
    <clipPath id="a">
      <rect width="16" height="16" fill="#fff" rx="2.918"/>
    </clipPath>
    <clipPath id="b">
      <path fill="#fff" d="M0 0h16v16H0z"/>
    </clipPath>
  </defs>
</svg>
